<?xml version="1.0" encoding="utf-8"?>
<!-- Generator: Adobe Illustrator 21.0.0, SVG Export Plug-In . SVG Version: 6.00 Build 0)  -->
<svg version="1.1" id="Layer_1" xmlns="http://www.w3.org/2000/svg" xmlns:xlink="http://www.w3.org/1999/xlink" x="0px" y="0px"
	 viewBox="0 0 2500 708" style="enable-background:new 0 0 2500 708;" xml:space="preserve">
<style type="text/css">
	.st0{fill:#666666;}
	.st1{fill:#83CD29;}
</style>
<path class="st0" d="M1327.2,1.9c-1.8,0-3.7,0.5-5.3,1.4c-3.2,1.9-5.3,5.4-5.3,9.1v268.8c0,2.6-1.2,5-3.5,6.3s-5.1,1.3-7.4,0
	l-43.9-25.3c-6.5-3.8-14.6-3.8-21.1,0l-175.3,101.2c-6.6,3.8-10.5,11.1-10.5,18.6v202.4c0,7.6,4,14.5,10.5,18.3l175.3,101.2
	c6.5,3.8,14.6,3.8,21.1,0l175.3-101.2c6.5-3.8,10.6-10.7,10.5-18.3V79.9c0-7.7-4.2-14.8-10.9-18.6L1332.5,2.9
	C1330.9,2,1329.1,1.8,1327.2,1.9L1327.2,1.9z M199.5,254.5c-3.3,0.1-6.5,0.7-9.5,2.5L14.7,358.1c-6.5,3.8-10.6,10.7-10.5,18.3
	L4.6,648c0,3.8,1.9,7.3,5.3,9.1c3.2,1.9,7.3,1.9,10.5,0l104-59.7c6.6-3.9,10.9-10.7,10.9-18.3V452.3c0-7.6,4-14.5,10.5-18.3
	l44.3-25.6c3.2-1.9,6.8-2.8,10.5-2.8c3.6,0,7.3,0.9,10.5,2.8l44.3,25.6c6.5,3.8,10.6,10.7,10.5,18.3v126.8c0,7.5,4.3,14.4,10.9,18.3
	l104,59.7c3.2,1.9,7.3,1.9,10.5,0c3.3-1.9,5.3-5.4,5.3-9.1l0.3-271.6c0-7.5-4-14.5-10.5-18.3L211.1,256.9c-3-1.7-6.1-2.3-9.5-2.5
	h-2.1V254.5z M1774.8,256.9c-3.7,0-7.3,0.9-10.5,2.8L1589,360.9c-6.5,3.8-10.6,10.7-10.5,18.3v202.4c0,7.6,4.3,14.5,10.9,18.3
	l173.9,99.1c6.4,3.7,14.3,3.9,20.7,0.3l105.4-58.7c3.3-1.9,5.6-5.3,5.6-9.1s-2-7.3-5.3-9.1l-176.4-101.2c-3.3-1.9-5.6-5.7-5.6-9.5
	v-63.2c0-3.8,2.3-7.3,5.6-9.1l54.8-31.6c3.3-1.9,7.3-1.9,10.5,0l54.8,31.6c3.3,1.9,5.3,5.4,5.3,9.1v49.9c0,3.8,2,7.3,5.3,9.1
	c3.3,1.9,7.3,1.9,10.5,0l105-61.1c6.5-3.8,10.5-10.7,10.5-18.3v-48.8c0-7.5-4-14.5-10.5-18.3l-174.3-101.2
	C1782.1,257.9,1778.5,256.9,1774.8,256.9L1774.8,256.9z M1250.6,408c0.9,0,2,0.2,2.8,0.7l60.1,34.8c1.6,0.9,2.8,2.7,2.8,4.6v69.6
	c0,1.9-1.2,3.6-2.8,4.6l-60.1,34.8c-1.6,0.9-3.6,0.9-5.3,0l-60.1-34.8c-1.6-0.9-2.8-2.7-2.8-4.6V448c0-1.9,1.2-3.6,2.8-4.6
	l60.1-34.8C1248.9,408.2,1249.8,408,1250.6,408L1250.6,408L1250.6,408z"/>
<path class="st1" d="M726.1,255.9c-3.7,0-7.3,0.9-10.5,2.8L540.3,359.5c-6.6,3.8-10.5,11.1-10.5,18.6v202.4c0,7.6,4,14.5,10.5,18.3
	L715.6,700c6.5,3.8,14.6,3.8,21.1,0L912,598.8c6.5-3.8,10.6-10.7,10.5-18.3V378.1c0-7.6-4-14.8-10.5-18.6L736.7,258.7
	C733.5,256.8,729.8,255.9,726.1,255.9L726.1,255.9z M1774.5,436.4c-0.7,0-1.5,0-2.1,0.4l-33.7,19.7c-1.3,0.7-2.1,2.1-2.1,3.5v38.6
	c0,1.5,0.8,2.8,2.1,3.5l33.7,19.3c1.3,0.7,2.6,0.7,3.9,0l33.7-19.3c1.3-0.7,2.1-2,2.1-3.5V460c0-1.5-0.8-2.8-2.1-3.5l-33.7-19.7
	C1775.6,436.4,1775.2,436.5,1774.5,436.4L1774.5,436.4z"/>
</svg>
