<?xml version="1.0" encoding="utf-8"?>
<!-- Generator: Adobe Illustrator 21.0.0, SVG Export Plug-In . SVG Version: 6.00 Build 0)  -->
<svg version="1.1" id="Layer_1" xmlns="http://www.w3.org/2000/svg" xmlns:xlink="http://www.w3.org/1999/xlink" x="0px" y="0px"
	 viewBox="0 0 2500 1053" style="enable-background:new 0 0 2500 1053;" xml:space="preserve">
<style type="text/css">
	.st0{fill:#FFFFFF;}
	.st1{fill:#666666;}
	.st2{fill:#3AB14A;}
</style>
<title>Asset 1</title>
<g id="Layer_2">
	<g id="Layer_1-2">
		<path class="st0" d="M857,215.1L524.7,17.8c-39.5-23.6-88.7-23.6-128.2,0L64.1,215.1C24.1,239.2-0.2,282.6,0,329.3v394.5
			c-0.2,46.7,24.1,90,64.1,114.1l332.3,197.2c39.5,23.5,88.7,23.5,128.2,0l332.3-197.2c40-24.1,64.4-67.5,64.1-114.2V329.3
			C921.3,282.6,896.9,239.2,857,215.1z"/>
		<path class="st1" d="M857,215.1L524.7,17.8c-39.5-23.6-88.7-23.6-128.2,0L64.1,215.1C24.1,239.2-0.2,282.6,0,329.3v394.5
			c-0.2,46.7,24.1,90,64.1,114.1l332.3,197.2c39.5,23.5,88.7,23.5,128.2,0l332.3-197.2c40-24.1,64.4-67.5,64.1-114.2V329.3
			C921.3,282.6,896.9,239.2,857,215.1z M408,1015L75.7,817.7c-32.8-19.9-52.8-55.6-52.7-94V329.3c-0.2-38.4,19.9-74.1,52.7-94
			L408,38c32.3-19.3,72.7-19.3,105,0l332,197.3c27.4,16.6,46,44.4,51,76c-11-23.5-35.9-29.9-64.8-13.3L517.1,492.6
			c-39.2,22.8-68.1,48.6-68.1,95.8v387.4c0,28.3,11.4,46.6,28.9,52c-5.8,1.1-11.6,1.6-17.4,1.7C442,1029.4,423.9,1024.4,408,1015z"
			/>
		<path class="st2" d="M769.9,761.9l-82.8,49.5c-2.2,0.9-3.7,3-3.8,5.4v21.8c0,2.7,1.8,3.7,4,2.5l84-51.1c2.1-1.5,3-4.1,2.5-6.7
			v-19.1C773.8,761.7,771.9,760.7,769.9,761.9L769.9,761.9z"/>
		<path class="st0" d="M593.7,579.7c2.7-1.3,4.9,0,4.9,3.8l0.3,28.9c10-4.5,21.1-5.9,31.8-3.9c2.1,0.5,2.9,3.3,2.1,6.7l-6.3,25.4
			c-0.5,1.9-1.5,3.7-2.9,5.1c-0.5,0.5-1.1,0.9-1.7,1.2c-0.8,0.4-1.6,0.5-2.5,0.4c-10.5-2.3-21.4-0.6-30.7,4.9
			c-13.5,6.1-22.3,19.3-22.7,34.1c0,13.3,6.7,17,29.9,17.4c30.7,0.5,44,13.9,44.3,44.8c-0.7,32.3-15.6,62.6-40.7,83l0.5,28.3
			c0,3.5-1.9,6.8-4.9,8.7l-16.8,9.6c-2.7,1.3-4.9,0-4.9-3.7v-27.9c-14.4,6-28.9,7.4-38.3,3.7c-1.7-0.7-2.5-3.3-1.8-6.3l6.1-25.6
			c0.5-2,1.5-3.9,3-5.3c0.5-0.5,1-0.8,1.6-1.1c0.9-0.4,1.9-0.4,2.7,0c11.9,3.2,24.5,1.6,35.2-4.5c15.4-7.4,25.4-22.8,26-39.9
			c0-14.4-7.9-20.4-26.6-20.5c-24.2,0-46.6-4.7-47-39.9c0.6-30.8,14.9-59.8,39-78.9l-1.2-29c0-3.6,1.8-6.9,4.9-8.8L593.7,579.7z"/>
		<path class="st1" d="M1350.7,541.8c-8.4-10.1-18.4-18.8-29.7-25.8l-4.3-2.5c9-6,17.1-13.1,24.1-21.3c15.5-18.1,24.1-41.1,24.2-65
			c0.7-20.6-4.1-40.9-14-59c-9.4-16.2-22.4-30.1-38-40.5c-16-10.5-33.7-18.2-52.4-22.7c-19.1-4.7-38.7-7.2-58.4-7.4h-133.1
			c-9.1-0.2-16.6,6.9-16.8,16V739c0.3,9.1,7.8,16.2,16.8,16h143.3c20.5-0.2,40.8-3.3,60.4-9.2c18.9-5.6,36.8-14.5,52.7-26.1
			c15.5-11.5,28.3-26.3,37.5-43.4c9.6-18.5,14.4-39.1,13.8-59.9c0.2-13.8-2.1-27.6-6.7-40.6C1365.8,563.4,1359.2,551.9,1350.7,541.8
			L1350.7,541.8z M1269.2,448.3c-3.7,6.4-8.8,11.9-14.8,16.2c-6.7,4.8-14.2,8.4-22.2,10.6c-8.6,2.6-17.6,4-26.6,4.1h-62.4V375.9
			h60.6c9.6,0.2,19.2,1.4,28.6,3.6c8,1.8,15.6,5,22.5,9.4c5.9,3.8,10.7,9,14.2,15.1c3.7,7,5.5,14.8,5.2,22.7
			C1274.6,434.2,1272.8,441.7,1269.2,448.3L1269.2,448.3z M1143.4,556.2h73.2c9.8,0.2,19.5,1.9,28.7,4.9c8,2.6,15.4,6.6,21.8,12
			c6,5,10.8,11.2,14,18.3c3.6,8.1,5.2,16.8,4.9,25.6c0.2,8.6-1.7,17.1-5.5,24.8c-3.6,7.2-8.8,13.4-15.1,18.4
			c-7,5.4-14.8,9.6-23.2,12.3c-9.1,3-18.6,4.6-28.1,4.8h-70.7V556.2z M1627.1,308.9c-2.4-6.8-8.9-11.2-16-11.1h-47.4
			c-7.1-0.1-13.5,4.3-16,11l-144.4,425.3c-1.7,4.9-0.8,10.2,2.4,14.3c3.2,4.1,8.1,6.6,13.3,6.7h56.8c7.2,0.1,13.7-4.4,16-11.2
			l32.3-98.9h124.4l31.7,98.8c2.3,6.9,8.8,11.4,16.1,11.3h56.5c5.2-0.1,10.1-2.5,13.3-6.7c3.2-4.1,4.1-9.4,2.5-14.3L1627.1,308.9z
			 M1623.5,565.8h-73.2l37-114L1623.5,565.8z M2110.5,558.2c-7.7-9.9-16.6-18.7-26.6-26.2c-9.9-7.5-20.5-14.2-31.5-20
			c-11.2-5.8-22.7-11-34.5-15.4c-11.4-4.3-23.1-8.2-34.7-11.6c-9.8-2.9-20.4-6.3-31.3-10c-9.9-3.4-19.4-7.9-28.3-13.3
			c-7.5-4.4-14.1-10.3-19.4-17.2c-4.5-6.4-6.8-14-6.7-21.8c-0.2-7.8,1.6-15.4,5.3-22.3c3.6-6.5,8.6-12.1,14.7-16.4
			c6.8-4.8,14.3-8.3,22.3-10.5c18.8-5.4,38.7-4.9,57.3,1.2c8.2,2.9,15.7,7.5,22.2,13.3c6.3,5.9,11.5,13,15.1,20.9
			c4.2,9.2,6.9,18.9,8.2,28.9c1.3,8.2,8.4,14.1,16.7,14h58.4c4.5,0,8.8-1.7,12-4.8c3.1-3,4.9-7.2,4.8-11.5
			c-0.2-20.9-5.4-41.4-15-59.9c-9.3-17.5-22.1-32.9-37.7-45.3c-16-12.6-34-22.3-53.2-28.7c-38.7-12.9-80.4-13.5-119.4-1.7
			c-18.6,5.4-36.1,13.9-51.9,25.2c-15.3,11-28.2,25.1-37.8,41.4c-10,17.3-15.2,36.9-14.9,56.9c-0.4,19.7,4.8,39.1,15.1,56
			c9.7,15.5,22.3,29,37.1,39.9c14.9,11,31,20.1,48.1,27.1c16.8,7.1,33.3,13.3,49.7,18.1c10.6,3.2,21.7,6.9,33.3,10.9
			c10.1,3.5,19.8,8.1,28.9,13.7c7.8,4.7,14.4,10.9,19.6,18.4c4.7,7.2,7,15.6,6.7,24.2c0.3,7.7-1.7,15.4-5.6,22
			c-4,6.4-9.4,11.9-15.8,16.1c-7.2,4.6-15.1,8-23.4,9.9c-20.4,5-41.8,4.6-61.9-1.2c-9.3-2.8-18-7.3-25.6-13.3
			c-7.4-5.8-13.5-13-18-21.2c-5-9.2-8.2-19.3-9.5-29.7c-1.3-8.1-8.4-14.1-16.7-13.9h-58.1c-4.5,0-8.8,1.7-12,4.9
			c-3.1,3-4.8,7.2-4.7,11.6c0.4,21.7,6.3,42.9,17.2,61.6c10.5,17.7,24.5,33,41.1,45.1c17.1,12.3,36.1,21.7,56.2,27.8
			c20.6,6.3,42,9.5,63.5,9.5c19.6,0,39.1-2.6,58-7.7c18.9-4.9,36.9-12.9,53.2-23.6c15.8-10.5,29.2-24.3,39.3-40.4
			c10.7-17.5,16.1-37.7,15.7-58.2c0.1-13.6-2.1-27.1-6.7-39.9C2124.7,579.1,2118.4,568.1,2110.5,558.2L2110.5,558.2z M2483.2,297.8
			h-53.8c-9.1-0.2-16.6,6.9-16.8,16v166.9h-149.8V313.8c-0.3-9.1-7.8-16.2-16.8-16h-53.2c-9.1-0.2-16.6,6.9-16.8,16v425.3
			c0.3,9.1,7.8,16.2,16.8,16h53.2c9.1,0.2,16.6-6.9,16.8-16V558.5h149.8v180.6c0.3,9.1,7.8,16.2,16.8,16h53.8
			c9.1,0.2,16.6-6.9,16.8-16V313.8C2499.8,304.7,2492.3,297.6,2483.2,297.8z M1104.1,828.8h-20.4v54.4h-10.8v-54.4h-20v-8.6h51.4
			L1104.1,828.8z M1166.7,883.2H1156v-28.1h-22.6v28.1h-10.6v-63h10.6v26.6h22.6v-26.6h10.6V883.2z M1229.2,855H1202v20h31.9v8.5
			H1191v-63h42.5v8.6H1202v17.8h27.3V855z M1323.7,883.2v-63h21.2c3,0,6,0.4,8.9,1.1c2.6,0.6,5,1.6,7.3,3.1c2.1,1.3,3.7,3.2,4.9,5.3
			c1.2,2.4,1.8,5,1.7,7.7c0,2.9-0.9,5.7-2.7,8c-1.9,2.3-4.4,4.1-7.3,5.1c1.7,0.5,3.4,1.2,4.9,2.1c1.4,0.9,2.6,2,3.6,3.3
			c1,1.3,1.7,2.7,2.3,4.2c0.5,1.6,0.8,3.3,0.8,4.9c0.1,2.7-0.5,5.5-1.7,7.9c-1.1,2.3-2.8,4.2-4.8,5.7c-2.2,1.6-4.6,2.8-7.3,3.5
			c-2.9,0.8-6,1.3-9,1.3L1323.7,883.2z M1334.6,846.8h10.4c1.5,0,3.1-0.2,4.6-0.6c1.3-0.3,2.6-0.9,3.7-1.7c1-0.7,1.9-1.7,2.5-2.8
			c0.6-1.2,0.9-2.5,0.9-3.8c0-1.4-0.3-2.8-0.9-4.1c-0.6-1.1-1.4-2.1-2.5-2.8c-1.1-0.8-2.4-1.3-3.7-1.6c-1.5-0.3-3.1-0.5-4.7-0.5
			h-10.4L1334.6,846.8z M1334.6,854.7v20h11.9c1.6,0,3.2-0.3,4.7-0.7c1.3-0.4,2.6-1.1,3.7-2c1-0.8,1.9-1.9,2.5-3.1
			c0.6-1.3,0.9-2.7,0.9-4.1c0-1.5-0.3-2.9-0.8-4.3c-0.5-1.2-1.2-2.3-2.2-3.2c-1-0.9-2.2-1.6-3.5-2c-1.5-0.5-3.1-0.7-4.7-0.7
			L1334.6,854.7z M1435.2,855.8c0,3.6-0.5,7.2-1.5,10.7c-0.9,3.3-2.4,6.3-4.5,9c-2,2.6-4.5,4.8-7.5,6.3c-3.3,1.6-6.9,2.4-10.5,2.3
			c-6.9,0.2-13.6-3-17.7-8.6c-2-2.7-3.5-5.8-4.4-9c-1-3.5-1.5-7.1-1.5-10.7v-8.1c0-2.4,0.2-4.9,0.7-7.3c0.4-2.3,1.1-4.5,1.9-6.7
			c0.9-2.1,1.9-4,3.3-5.8c1.3-1.8,2.8-3.3,4.5-4.6c1.8-1.3,3.8-2.3,5.9-3c2.3-0.7,4.8-1.1,7.3-1.1c7-0.2,13.7,3,18,8.6
			c2.1,2.7,3.6,5.8,4.5,9c1,3.5,1.5,7.1,1.5,10.7L1435.2,855.8z M1424.3,847.7c0-2.4-0.2-4.7-0.7-7.1c-0.4-2.2-1.1-4.3-2.1-6.3
			c-1-1.8-2.3-3.3-4-4.5c-1.8-1.2-4-1.8-6.2-1.7c-2.2-0.1-4.3,0.5-6.1,1.7c-1.6,1.2-3,2.7-3.9,4.5c-1,2-1.7,4.1-2,6.3
			c-0.4,2.3-0.6,4.7-0.6,7.1v8.1c0,2.4,0.3,4.7,0.7,7.1c0.3,2.2,1,4.3,2,6.3c0.9,1.8,2.2,3.4,3.9,4.5c1.8,1.2,4,1.8,6.1,1.7
			c2.2,0.1,4.4-0.5,6.2-1.7c1.7-1.2,3-2.7,4-4.5c1-2,1.8-4.1,2.1-6.3c0.4-2.3,0.6-4.7,0.7-7.1L1424.3,847.7z M1500.1,820.3v42.2
			c0,3-0.6,6-1.7,8.8c-1,2.5-2.5,4.8-4.5,6.7c-1.9,1.9-4.2,3.4-6.7,4.4c-2.9,1.1-6,1.6-9.1,1.5c-3,0-6.1-0.5-8.9-1.5
			c-5.2-1.9-9.3-6-11.3-11.2c-1.1-2.8-1.7-5.9-1.7-8.9V820h10.7v42.2c0,1.8,0.3,3.6,0.8,5.3c0.4,1.5,1.1,2.9,2.1,4.2
			c0.9,1.2,2.1,2.1,3.4,2.7c1.5,0.7,3.1,1,4.7,1c1.7,0,3.3-0.3,4.9-1c1.4-0.6,2.6-1.6,3.5-2.7c1-1.2,1.7-2.7,2.1-4.2
			c0.5-1.7,0.8-3.5,0.8-5.3V820L1500.1,820.3z M1545.8,858.5h-11.1v24.6h-11v-63h21c3.2,0,6.3,0.4,9.4,1.3c2.7,0.7,5.2,1.9,7.5,3.5
			c2.1,1.6,3.7,3.6,4.9,5.9c1.2,2.6,1.8,5.4,1.7,8.3c0,2-0.3,3.9-0.9,5.8c-0.6,1.7-1.4,3.3-2.5,4.7c-1.1,1.4-2.3,2.7-3.8,3.7
			c-1.5,1.1-3.2,2-4.9,2.7l14,26.6v0.5h-11.6L1545.8,858.5z M1534.7,850.1h10c1.7,0,3.4-0.2,5-0.7c1.4-0.5,2.8-1.2,3.9-2.1
			c1.1-0.9,2-2,2.6-3.3c0.6-1.4,1-3,0.9-4.5c0-1.6-0.3-3.2-0.9-4.7c-0.5-1.3-1.4-2.5-2.5-3.4c-1.1-1-2.5-1.7-3.9-2.1
			c-1.7-0.5-3.4-0.7-5.2-0.7h-10L1534.7,850.1z M1633.1,883.2h-11l-21.6-43.3v43.3h-11v-63h11l21.5,43.3v-43.3h11V883.2z
			 M1695.7,855h-27.3v20h31.9v8.5h-42.8v-63h42.5v8.6h-31.6v17.8h27.3V855z M1764.5,859.8H1728v-8.3h36.5V859.8z M1822.2,868.6
			h-20.7l-4.5,14.6h-11.3l21.5-63h9.3l21.1,63h-11.2L1822.2,868.6z M1804.3,859.8h15.2l-7.5-24.7L1804.3,859.8z M1901.2,875.4
			c-1.2,1.3-2.5,2.5-3.9,3.5c-1.6,1.1-3.3,2.1-5.1,2.8c-2,0.8-4,1.4-6.1,1.8c-2.3,0.5-4.7,0.7-7.1,0.7c-3.6,0.1-7.3-0.7-10.6-2.2
			c-3-1.4-5.7-3.5-7.8-6.1c-2.2-2.7-3.8-5.7-4.9-9c-1.1-3.6-1.7-7.4-1.7-11.2v-7.8c0-3.8,0.5-7.6,1.7-11.2c1-3.3,2.6-6.4,4.7-9
			c2-2.5,4.6-4.6,7.5-6.1c3.2-1.5,6.7-2.3,10.2-2.3c3.1,0,6.2,0.4,9.2,1.3c2.4,0.8,4.7,2.2,6.7,3.9c2,1.7,3.5,3.8,4.6,6.2
			c1.2,2.6,1.9,5.3,2.1,8.1H1890c-0.2-1.6-0.7-3.1-1.3-4.6c-0.5-1.3-1.3-2.5-2.3-3.5c-1-1-2.2-1.7-3.5-2.2c-1.6-0.5-3.3-0.8-4.9-0.7
			c-2.1-0.1-4.1,0.5-5.9,1.6c-1.7,1.1-3.1,2.6-4.1,4.4c-1.2,2.1-2,4.3-2.4,6.7c-0.5,2.5-0.8,5-0.8,7.6v7.9c0,2.5,0.3,5,0.9,7.5
			c0.4,2.4,1.3,4.6,2.5,6.7c1.1,1.8,2.6,3.3,4.4,4.4c2,1.2,4.3,1.7,6.7,1.7h3.2c1.1-0.1,2.1-0.3,3.1-0.6c0.9-0.3,1.9-0.7,2.7-1.1
			c0.8-0.4,1.4-1,2-1.7v-12.6h-12v-8.1h22.7L1901.2,875.4z M1955.5,868.6h-20.7l-4.5,14.6H1919l21.5-63h9.6l21.1,63h-11.2
			L1955.5,868.6z M1937.6,859.8h15.2l-7.5-24.7L1937.6,859.8z M1991.5,820.3h39.4v8.6h-14.3v45.8h14.3v8.6h-39.4v-8.6h14v-45.8h-14
			V820.3z M2099.6,883.2h-11l-21.6-43.3v43.3h-11v-63h11l21.5,43.3v-43.3h11L2099.6,883.2z M2224.3,867c0-1.4-0.3-2.7-1-3.9
			c-0.7-1.2-1.7-2.2-2.8-3c-1.3-0.9-2.8-1.7-4.3-2.3c-1.6-0.7-3.4-1.3-5.4-1.8c-2.6-0.7-5.2-1.6-7.7-2.7c-2.4-1-4.6-2.3-6.7-3.9
			c-1.9-1.5-3.6-3.3-4.9-5.4c-1.3-2.2-1.9-4.7-1.9-7.2c0-2.6,0.6-5.1,1.9-7.3c1.2-2.1,2.9-4,4.9-5.5c2.2-1.6,4.6-2.7,7.2-3.5
			c2.8-0.8,5.7-1.2,8.6-1.2c3,0,6,0.5,8.9,1.4c2.6,0.9,5.1,2.2,7.3,3.9c2,1.7,3.7,3.7,4.9,6.1c1.2,2.4,1.9,5.1,1.9,7.8h-10.9
			c-0.1-1.5-0.5-2.9-1.1-4.3c-0.5-1.3-1.4-2.4-2.4-3.4c-1.1-1-2.3-1.7-3.7-2.2c-1.6-0.6-3.3-0.8-5.1-0.8c-1.5,0-3.1,0.2-4.5,0.6
			c-1.3,0.4-2.5,1-3.6,1.8c-1,0.7-1.8,1.7-2.4,2.8c-0.6,1.2-0.9,2.4-0.9,3.7c0,1.4,0.4,2.7,1.2,3.8c0.8,1.1,1.9,2.1,3.1,2.9
			c1.4,0.9,2.9,1.6,4.4,2.1c1.6,0.6,3.4,1.1,5.2,1.6c2.7,0.8,5.4,1.7,7.9,2.9c2.4,1.1,4.6,2.5,6.7,4.1c1.8,1.5,3.4,3.4,4.5,5.5
			c1.2,2.2,1.7,4.7,1.7,7.3c0.1,2.6-0.6,5.1-1.9,7.4c-1.2,2.1-2.9,4-5,5.4c-2.2,1.5-4.7,2.6-7.3,3.3c-2.8,0.8-5.7,1.1-8.7,1.1
			c-2,0-4.1-0.2-6.1-0.5c-2-0.4-3.9-0.9-5.7-1.7c-1.8-0.7-3.5-1.7-5.1-2.8c-1.5-1.1-2.9-2.4-4.1-3.9c-2.5-3.1-3.8-6.9-3.8-10.8h11
			c0.1,1.7,0.6,3.4,1.3,5c0.7,1.4,1.7,2.6,2.9,3.5c1.3,1,2.7,1.7,4.3,2.1c1.8,0.5,3.6,0.7,5.4,0.7c1.5,0,3.1-0.2,4.6-0.5
			c1.3-0.3,2.6-0.9,3.7-1.7c1-0.7,1.9-1.6,2.5-2.7C2224.1,869.7,2224.4,868.4,2224.3,867L2224.3,867z M2299.5,883.2h-10.6v-28.1
			h-22.6v28.1h-10.6v-63h10.6v26.6h22.7v-26.6h10.6L2299.5,883.2z M2362.1,855h-27.3v20h31.9v8.5h-42.9v-63h42.5v8.6h-31.6v17.8
			h27.3V855z M2402.1,874.8h31.6v8.5h-42.5v-63h10.9V874.8z M2468.6,874.8h31.6v8.5h-42.5v-63h10.9V874.8z"/>
	</g>
</g>
</svg>
