<?xml version="1.0" encoding="utf-8"?>
<!-- Generator: Adobe Illustrator 21.0.0, SVG Export Plug-In . SVG Version: 6.00 Build 0)  -->
<svg version="1.1" id="Capa_1" xmlns="http://www.w3.org/2000/svg" xmlns:xlink="http://www.w3.org/1999/xlink" x="0px" y="0px"
	 viewBox="0 0 439.9 439.9" style="enable-background:new 0 0 439.9 439.9;" xml:space="preserve">
<style type="text/css">
	.st0{fill:#666666;}
</style>
<g>
	<g>
		<path class="st0" d="M382.5,95.6H57.4C24.9,95.6,0,120.5,0,153v133.9c0,32.5,24.9,57.4,57.4,57.4h325.1
			c32.5,0,57.4-24.9,57.4-57.4V153C439.9,120.5,415,95.6,382.5,95.6z M95.6,210.4h19.1c21,0,38.2,17.2,38.2,38.2
			s-17.2,38.3-38.2,38.3H95.6c-21,0-38.2-17.2-38.2-38.3l0,0h19.1l0,0c0,9.6,7.7,19.1,19.1,19.1h19.1c11.5,0,19.1-7.6,19.1-19.1
			c0-11.5-9.6-19.1-19.1-19.1H95.6c-21,0-38.2-17.2-38.2-38.2c0-21,17.2-38.2,38.2-38.2h19.1c21,0,38.2,17.2,38.2,38.2h-19.1
			c0-9.6-7.7-19.1-19.1-19.1H95.6c-11.5,0-19.1,7.6-19.1,19.1S86.1,210.4,95.6,210.4z M260.1,302.2L242.9,285
			c-3.8,1.9-9.6,1.9-13.4,1.9h-19.1c-21,0-38.2-17.2-38.2-38.3v-57.4c0-21,17.2-38.2,38.2-38.2h19.1c21,0,38.2,17.2,38.2,38.2v57.4
			c0,9.6-3.8,19.1-9.6,24.9l15.3,15.3L260.1,302.2z M382.5,286.9h-95.6V153H306v114.8h76.5V286.9z"/>
		<path class="st0" d="M229.5,172.1h-19.1c-11.5,0-19.1,7.6-19.1,19.1v57.4c0,11.5,7.6,19.1,19.1,19.1h15.3l-21-21l13.4-13.4
			l26.8,26.8c1.9-3.8,3.8-7.6,3.8-11.5v-57.4C248.6,179.8,241,172.1,229.5,172.1z"/>
	</g>
</g>
</svg>
