<?xml version="1.0" encoding="utf-8"?>
<!-- Generator: Adobe Illustrator 21.0.0, SVG Export Plug-In . SVG Version: 6.00 Build 0)  -->
<svg version="1.1" id="Layer_1" xmlns="http://www.w3.org/2000/svg" xmlns:xlink="http://www.w3.org/1999/xlink" x="0px" y="0px"
	 viewBox="0 0 2500 1650" style="enable-background:new 0 0 2500 1650;" xml:space="preserve">
<style type="text/css">
	.st0{fill:#666666;}
	.st1{fill:#BBE6FB;}
	.st2{fill:#FFFFFF;}
	.st3{fill:#373535;}
	.st4{fill:#1287B1;}
	.st5{fill:#373535;fill-opacity:0.35;}
</style>
<g>
	<path class="st0" d="M301.7,1388.3c21.5,0,41,4.9,51.7,14.6c2,15.6-12.7,41-21.5,41c-10.7-3.9-20.5-5.9-33.2-5.9
		c-50.8,0-76.2,52.7-76.2,104.5c0,32.2,10.7,51.7,37.1,51.7c27.3,0,54.7-18.6,70.3-32.2c3.9,2.9,8.8,11.7,8.8,21.5
		c0,10.7-2.9,21.5-13.7,32.2c-17.6,17.6-47.8,33.2-91.8,33.2c-49.8,0-84.9-28.3-84.9-94.7C150.4,1466.4,207,1388.3,301.7,1388.3
		L301.7,1388.3z M465.7,1591.4c27.3,0,77.1-47.8,90.8-139.6c1-5.9,1-6.8,2-12.7c-5.9-2-14.6-3.9-22.5-3.9c-20.5,0-42,5.9-60.5,32.2
		c-19.5,27.3-28.3,61.5-28.3,88.8C447.2,1578.7,454,1591.4,465.7,1591.4L465.7,1591.4z M375.9,1566c0-33.2,10.7-89.8,52.7-131.8
		c36.1-37.1,79.1-45.9,119.1-45.9c26.4,0,61.5,8.8,84,12.7c-5.9,24.4-18.6,117.2-25.4,170.9c-2.9,22.5-3.9,54.7-2.9,66.4
		c-18.6,7.8-52.7,9.8-62.5,9.8c-4.9,0-5.9-22.5-4.9-44.9c1-6.8,2-17.6,2-22.5c-21.5,36.1-64.4,66.4-109.3,66.4
		C396.4,1648,375.9,1620.7,375.9,1566L375.9,1566z M770.3,1388.3c22.5,0,44.9,8.8,54.7,18.6c-1,15.6-12.7,42-32.2,34.2
		c-8.8-2.9-16.6-4.9-28.3-4.9c-14.6,0-28.3,6.8-28.3,20.5c0,10.7,7.8,18.6,44.9,44.9c26.4,19.5,37.1,37.1,37.1,61.5
		c0,41-38.1,84.9-105.4,84.9c-27.3,0-51.7-10.7-58.6-21.5c-9.8-16.6-2-49.8,8.8-43.9c14.6,6.8,38.1,14.6,57.6,14.6
		c18.6,0,30.3-8.8,30.3-19.5c0-9.8-8.8-17.6-42-42c-28.3-21.5-37.1-41-37.1-62.5C671.7,1426.4,711.7,1388.3,770.3,1388.3
		L770.3,1388.3z M962.7,1388.3c22.5,0,44.9,8.8,54.7,18.6c-1,15.6-12.7,42-32.2,34.2c-8.8-2.9-16.6-4.9-28.3-4.9
		c-14.6,0-28.3,6.8-28.3,20.5c0,10.7,7.8,18.6,44.9,44.9c26.4,19.5,37.1,37.1,37.1,61.5c0,41-38.1,84.9-105.4,84.9
		c-27.3,0-50.8-10.7-58.6-21.5c-9.8-16.6-2-49.8,8.8-43.9c14.6,6.8,38.1,14.6,57.6,14.6c18.6,0,30.3-8.8,30.3-19.5
		c0-9.8-8.8-17.6-42-42c-28.3-21.5-37.1-41-37.1-62.5C864.1,1426.4,904.1,1388.3,962.7,1388.3L962.7,1388.3z M1137.4,1591.4
		c27.3,0,77.1-47.8,90.8-139.6c1-5.9,1-6.8,2-12.7c-5.9-2-14.6-3.9-22.5-3.9c-20.5,0-42,5.9-60.5,32.2
		c-19.5,27.3-28.3,61.5-28.3,88.8C1119.9,1578.7,1125.7,1591.4,1137.4,1591.4L1137.4,1591.4z M1047.6,1566
		c0-33.2,10.7-89.8,52.7-131.8c36.1-37.1,79.1-45.9,119.1-45.9c26.4,0,61.5,8.8,84,12.7c-5.9,24.4-18.6,117.2-25.4,170.9
		c-2.9,22.5-3.9,54.7-2.9,66.4c-18.6,7.8-52.7,9.8-62.5,9.8c-4.9,0-5.9-22.5-4.9-44.9c1-6.8,2-17.6,2-22.5
		c-21.5,36.1-64.4,66.4-109.3,66.4C1069.1,1648,1047.6,1620.7,1047.6,1566L1047.6,1566z M1429.3,1460.6
		c25.4-41,58.6-72.2,105.4-72.2c40,0,52.7,37.1,44.9,88.8c-3.9,24.4-10.7,59.6-14.6,91.8c-3.9,27.3-6.8,51.7-5.9,68.3
		c-14.6,6.8-56.6,9.8-66.4,9.8c-3.9,0-4.9-30.3,1-62.5c4.9-26.4,13.7-75.2,18.6-103.5c2.9-16.6,2-36.1-13.7-36.1
		c-20.5,0-69.3,33.2-93.7,167.9c-2,10.7-5.9,17.6-12.7,21.5c-8.8,4.9-26.4,9.8-62.5,9.8c6.8-34.2,17.6-103.5,25.4-155.2
		c6.8-46.9,9.8-77.1,8.8-88.8c9.8-2.9,59.6-13.7,64.4-13.7c5.9,0,6.8,17.6,2,58.6c-1,3.9-1,9.8-2,13.7h1L1429.3,1460.6
		L1429.3,1460.6z M1712.5,1590.4c24.4,0,74.2-45.9,87.9-126.9c1-4.9,2-12.7,2.9-17.6c-6.8-6.8-16.6-10.7-32.2-10.7
		c-56.6,0-81,67.4-81,116.2C1691,1576.8,1699.8,1590.4,1712.5,1590.4L1712.5,1590.4z M1676.4,1648c-36.1,0-57.6-32.2-57.6-85.9
		c0-89.8,56.6-172.8,151.3-172.8c16.6,0,32.2,4.9,41,9.8c4.9-25.4,16.6-104.5,17.6-127.9c15.6-2.9,48.8-7.8,64.4-7.8
		c5.9,0,7.8,5.9,5.9,20.5c-13.7,84-37.1,244.1-42,279.2c-2.9,30.3-3.9,59.6-2.9,76.2c-17.6,7.8-53.7,9.8-63.5,9.8
		c-3.9,0-5.9-25.4-4.9-48.8c1-6.8,2-17.6,2-19.5C1757.4,1625.6,1719.3,1648,1676.4,1648L1676.4,1648z M2002.5,1468.4
		c29.3-65.4,64.4-80.1,87.9-80.1c6.8,0,18.6,4.9,23.4,9.8c2,18.6-12.7,54.7-25.4,69.3c-6.8-2.9-14.6-6.8-24.4-6.8
		c-18.6,0-56.6,29.3-80.1,156.2c-2,10.7-4.9,14.6-10.7,17.6c-9.8,5.9-46.9,9.8-64.4,10.7c8.8-45.9,22.5-138.6,28.3-193.3
		c2-13.7,2-40,1-49.8c10.7-4.9,52.7-14.6,61.5-14.6c4.9,0,8.8,30.3,1,80.1h2L2002.5,1468.4L2002.5,1468.4z M2198.7,1591.4
		c27.3,0,77.1-47.8,90.8-139.6c1-5.9,1-6.8,2-12.7c-5.9-2-14.6-3.9-22.5-3.9c-20.5,0-42,5.9-60.5,32.2
		c-19.5,27.3-28.3,61.5-28.3,88.8C2181.1,1578.7,2187,1591.4,2198.7,1591.4L2198.7,1591.4z M2108.9,1566
		c0-33.2,10.7-89.8,52.7-131.8c36.1-37.1,79.1-45.9,119.1-45.9c26.4,0,61.5,8.8,84,12.7c-5.9,24.4-18.6,117.2-25.4,170.9
		c-2.9,22.5-3.9,54.7-2.9,66.4c-18.6,7.8-52.7,9.8-62.5,9.8c-4.9,0-5.9-22.5-4.9-44.9c1-6.8,2-17.6,2-22.5
		c-21.5,36.1-64.4,66.4-109.3,66.4C2130.4,1648,2108.9,1620.7,2108.9,1566z"/>
</g>
<path class="st1" d="M2006.4,444.2c18.6,213.8-318.3,417.9-752.8,455C819.1,936.3,453,792.8,434.5,579
	c-18.6-213.8,318.3-417.9,752.8-455C1620.7,86.9,1987.8,229.4,2006.4,444.2"/>
<path class="st2" d="M1198.9,148.4c-166-2.9-359.3,63.5-503.8,125c-14.6,43-23.4,88.8-23.4,136.7c0,253.8,229.4,459.9,512.6,459.9
	s513.6-205,513.6-459.9c0-80.1-23.4-156.2-63.5-221.6C1519.2,170.9,1360,151.3,1198.9,148.4"/>
<path class="st2" d="M1185.3,148.4c-91.8-5.9-249.9,42-381.7,89.8c-20.5,46.9-31.2,98.6-31.2,153.3c0,222.6,202.1,403.2,414.9,403.2
	c211.9,0,399.3-180.6,414.9-403.2c4.9-72.2-19.5-140.6-54.7-199.2C1411.8,168.9,1267.3,154.3,1185.3,148.4"/>
<path class="st3" d="M950,363.2c11.7-25.4,28.3-37.1,44.9-57.6c-2-4.9-5.9-21.5-5.9-26.4c0-25.4,20.5-44.9,44.9-44.9
	c5.9,0,11.7,1,16.6,2.9c75.2-57.6,173.8-82,273.4-59.6c8.8,2,17.6,4.9,26.4,6.8c-97.6-13.7-208.9,21.5-284.1,82
	c2,5.9,8.8,20.5,8.8,27.3c0,25.4-16.6,31.2-41,31.2c-5.9,0-10.7-1-16.6-2.9c-16.6,22.5-38.1,66.4-47.8,93.7
	c42,37.1,79.1,50.8,127.9,69.3c0-2,2-4.9,2-6.8c0-75.2,66.4-136.7,141.6-136.7c67.4,0,124,48.8,134.7,113.3
	c34.2-21.5,66.4-38.1,90.8-69.3c-5.9-6.8-11.7-27.3-11.7-37.1c0-22.5,18.6-41,41-41c2.9,0,5.9,0,9.8,1c12.7-26.4,22.5-53.7,28.3-82
	c-118.1-87.9-346.6-75.2-346.6-75.2s-181.6-9.8-304.6,50.8C891.4,258.7,914.8,315.4,950,363.2"/>
<path class="st3" d="M1514.3,329c8.8,7.8,12.7,13.7,16.6,20.5c10.7,19.5-10.7,38.1-34.2,38.1c-2,0-4.9,0-6.8-1
	c-25.4,40-70.3,90.8-110.3,117.2c61.5,9.8,119.1,34.2,164,72.2c33.2-59.6,58.6-146.4,58.6-219.7c0-55.7-24.4-96.7-61.5-126.9
	C1539.7,259.7,1523.1,301.7,1514.3,329 M1018.3,707.8c20.5-56.6,70.3-99.6,118.1-137.7c-6.8-9.8-17.6-33.2-21.5-43.9
	c-57.6-17.6-108.4-50.8-148.4-93.7c0,1-1,2.9-1,3.9c-7.8,33.2-8.8,67.4-4.9,99.6c27.3,4.9,48.8,29.3,48.8,58.6
	c0,17.6-15.6,42-27.3,53.7C993.9,673.7,1002.7,687.3,1018.3,707.8"/>
<path class="st3" d="M1014.4,754.7c-24.4-24.4-41-72.2-56.6-102.5c-2.9,0-5.9,1-8.8,1c-33.2,0-67.4-27.3-59.6-59.6
	c3.9-17.6,16.6-29.3,36.1-39.1c-4.9-37.1-5.9-88.8,2.9-126.9c2-10.7,7.8-15.6,10.7-26.4c-36.1-52.7-59.6-123-59.6-192.3v-7.8
	c-61.5,31.2-107.4,79.1-107.4,155.2c0,168.9,97.6,334.9,242.1,399.3L1014.4,754.7 M1370.8,521.4c-18.6,52.7-69.3,91.8-128.9,91.8
	c-32.2,0-61.5-10.7-84-29.3c-47.8,37.1-91.8,102.5-113.3,160.1c9.8,10.7,16.6,19.5,28.3,29.3c33.2,8.8,80.1,0,116.2,0
	c145.5,0,275.3-64.4,349.5-178.7C1487.9,559.4,1429.3,526.2,1370.8,521.4"/>
<path class="st4" d="M946.1,382.7c11.7-25.4,25.4-47.8,42-69.3c-2-4.9-2.9-10.7-2.9-15.6c0-25.4,20.5-44.9,44.9-44.9
	c5.9,0,11.7,1,16.6,2.9c75.2-57.6,173.8-82,273.4-59.6c8.8,2,17.6,4.9,26.4,6.8c-97.6-13.7-199.2,16.6-274.3,77.1
	c2,5.9,3.9,11.7,3.9,17.6c0,25.4-20.5,44.9-44.9,44.9c-5.9,0-10.7-1-16.6-2.9c-16.6,22.5-31.2,47.8-41,75.2
	c36.1,38.1,80.1,69.3,128.9,86.9V495c0-75.2,61.5-136.7,136.7-136.7c67.4,0,124,48.8,134.7,113.3c34.2-21.5,63.5-48.8,88.8-81
	c-5.9-6.8-9.8-15.6-9.8-25.4c0-22.5,18.6-41,41-41c2.9,0,5.9,0,9.8,1c12.7-26.4,22.5-53.7,28.3-82
	c-118.1-87.9-346.6-75.2-346.6-75.2s-181.6-9.8-304.6,50.8C887.5,278.3,910.9,334.9,946.1,382.7"/>
<path class="st4" d="M1520.1,335.9c8.8,7.8,13.7,18.6,13.7,30.3c0,22.5-18.6,41-41,41c-2,0-4.9,0-6.8-1
	c-25.4,40-59.6,74.2-99.6,99.6c58.6,8.8,114.2,34.2,160.1,72.2c33.2-59.6,52.7-128.9,52.7-202.1c0-55.7-24.4-96.7-61.5-126.9
	C1535.8,279.2,1529.9,308.5,1520.1,335.9 M1024.2,720.5c20.5-56.6,55.7-106.4,103.5-144.5c-6.8-9.8-12.7-19.5-16.6-31.2
	c-57.6-17.6-108.4-50.8-148.4-93.7c0,1-1,2.9-1,3.9c-7.8,33.2-8.8,67.4-4.9,99.6c27.3,4.9,48.8,29.3,48.8,58.6
	c0,17.6-7.8,33.2-19.5,43.9C995.9,679.5,1009.5,701,1024.2,720.5"/>
<path class="st4" d="M1014.4,753.7c-24.4-24.4-44.9-51.7-60.5-82c-2.9,0-5.9,1-8.8,1c-33.2,0-59.6-26.4-59.6-59.6
	c0-23.4,13.7-43.9,33.2-53.7c-4.9-37.1-2.9-74.2,5.9-112.3c2-10.7,5.9-21.5,8.8-32.2c-36.1-52.7-57.6-117.2-57.6-186.5v-7.8
	c-61.5,31.2-107.4,79.1-107.4,155.2c0,168.9,100.6,314.4,245.1,378.8C1014.4,754.7,1014.4,754.7,1014.4,753.7 M1366.9,540.9
	c-18.6,52.7-69.3,91.8-128.9,91.8c-32.2,0-61.5-10.7-84-29.3c-47.8,37.1-84,87.9-106.4,145.5c9.8,10.7,20.5,20.5,31.2,30.3
	c33.2,8.8,68.3,13.7,104.5,13.7c145.5,0,274.3-75.2,348.6-189.4C1483,568.2,1425.4,545.8,1366.9,540.9"/>
<path class="st2" d="M1371.7,505.7l125.9-30.3l-126.9-6.8l103.5-78.1l-117.2,42l79.1-110.3l-110.3,73.2l38.1-128.9L1288.8,373
	l-2-134.7L1237,358.3l-41-121.1l2,142.5l-71.3-127.9l39.1,135.7l-116.2-84l90.8,114.2l-144.5-52.7l113.3,84L963.6,454l149.4,38.1
	l-149.4,32.2l147.4,10.7l-124,79.1l127.9-45.9l-88.8,112.3l112.3-90.8l-40,150.4l86.9-123l-11.7,144.5l48.8-131.8l42,137.7
	l9.8-138.6l62.5,118.1l-37.1-134.7l113.3,87.9l-73.2-112.3l125,48.8l-95.7-93.7l127.9,9.8L1371.7,505.7z"/>
<path class="st5" d="M27.3,746.9c391.5-391.5,703.9-512.6,988-567.2c37.1-6.8,44.9-89.8,44.9-89.8s4.9,60.5,31.2,68.3
	c26.4,7.8,60.5-94.7,60.5-94.7s-31.2,91.8,0,97.6c31.2,4.9,89.8-89.8,89.8-89.8s-23.4,81-7.8,86.9c15.6,4.9,94.7-118.1,94.7-118.1
	s-46.9,81-2.9,89.8c44.9,7.8,110.3-55.7,110.3-55.7s-50.8,57.6-28.3,66.4c97.6,34.2,175.7-91.8,175.7-91.8s-18.6,55.7-65.4,116.2
	c102.5,26.4,178.7-127.9,178.7-127.9l-76.2,154.3C1659.8,210.9,1817,29.3,1817,29.3s-81,141.6-128.9,170.9
	c26.4,21.5,121.1-63.5,121.1-63.5s-76.2,94.7-46.9,99.6c42,34.2,197.2-175.7,197.2-175.7s-60.5,124-149.4,220.7
	c74.2,38.1,259.7-201.1,259.7-201.1s-4.9,76.2-139.6,197.2c99.6-12.7,228.5-202.1,228.5-202.1s-46.9,141.6-160.1,242.1
	c97.6-9.8,254.8-251.9,254.8-251.9s-60.5,167.9-183.6,265.6c136.7,30.3,333.9-173.8,333.9-173.8s-77.1,144.5-178.7,204.1
	c113.3,43,268.5-135.7,268.5-135.7S2338.3,464.7,2091.3,454c-81-3.9-326.1-246-851.4-226.5C544.8,252.9,398.3,547.7,27.3,746.9"/>
<path class="st3" d="M43,717.6C434.5,326.1,746.9,205,1031,150.4c37.1-6.8,44.9-89.8,44.9-89.8s4.9,60.5,31.2,68.3
	s60.5-94.7,60.5-94.7s-31.2,91.8,0,97.6c31.2,4.9,89.8-89.8,89.8-89.8s-23.4,81-7.8,86.9c15.6,4.9,94.7-118.1,94.7-118.1
	s-46.9,81-2.9,89.8c44.9,7.8,110.3-55.7,110.3-55.7s-50.8,57.6-28.3,66.4c97.6,34.2,175.7-91.8,175.7-91.8s-18.6,55.7-65.4,116.2
	c102.5,26.4,178.7-127.9,178.7-127.9l-76.2,154.3C1675.4,183.6,1833.6,2,1833.6,2s-81,141.6-128.9,170.9
	c26.4,18.6,121.1-65.4,121.1-65.4s-76.2,94.7-46.9,99.6c42,34.2,197.2-175.7,197.2-175.7s-61.5,124-150.4,220.7
	c74.2,37.1,260.7-202.1,260.7-202.1s-4.9,76.2-139.6,197.2c99.6-12.7,228.5-202.1,228.5-202.1s-46.9,141.6-160.1,242.1
	c97.6-9.8,254.8-251.9,254.8-251.9s-60.5,167.9-183.6,265.6c136.7,30.3,333.9-173.8,333.9-173.8s-77.1,144.5-178.7,204.1
	c113.3,43,268.5-135.7,268.5-135.7s-155.2,239.2-402.2,228.5c-81-3.9-326.1-246-851.4-226.5C561.4,223.6,414,517.5,43,717.6"/>
<path class="st5" d="M17.6,789.9c207,103.5,396.4-15.6,634.6,51.7c181.6,50.8,402.2,114.2,702,70.3
	c299.7-43,555.5-173.8,678.6-406.2c38.1-103.5,193.3,23.4,193.3,23.4s-113.3-46.9-110.3-25.4c2.9,22.5,169.9,99.6,169.9,99.6
	s-151.3-46.9-141.6-11.7c8.8,35.1,189.4,177.7,189.4,177.7s-206-154.3-222.6-132.8c-17.6,21.5,86.9,106.4,86.9,106.4
	s-171.8-106.4-232.4-75.2c-43.9,22.5,178.7,167.9,178.7,167.9s-144.5-110.3-178.7-81c-34.2,29.3,163,265.6,163,265.6
	s-224.6-242.1-247-230.4c-22.5,11.7,61.5,127.9,61.5,127.9s-109.3-121.1-139.6-100.6c-30.3,21.5,158.2,334.9,158.2,334.9
	s-204.1-321.2-289-267.5c131.8,290,83,331,83,331s-16.6-295.8-181.6-288c-83,3.9,39.1,220.7,39.1,220.7S1500.6,950,1425.4,953.9
	c137.7,261.7,88.8,367.1,88.8,367.1s22.5-223.6-164-347.6c71.3,63.5-44.9,347.6-44.9,347.6s101.5-418.8-75.2-338.8
	c-28.3,12.7-2,208.9-2,208.9s-35.1-224.6-88.8-212.8c-31.2,6.8-197.2,311.4-197.2,311.4s135.7-329,94.7-315.4
	c-30.3,9.8-86.9,145.5-86.9,145.5s27.3-133.8,0-141.6s-181.6,141.6-181.6,141.6s114.2-133.8,94.7-162.1
	c-30.3-42-64.4-43.9-106.4-27.3c-60.5,23.4-141.6,133.8-141.6,133.8s81-112.3,67.4-153.3c-22.5-67.4-255.8,129.9-255.8,129.9
	s137.7-129.9,106.4-158.2c-31.2-27.3-203.1-19.5-255.8-19.5C120.1,865,65.4,827.9,17.6,789.9"/>
<path class="st3" d="M8.8,766.4c207,103.5,396.4-15.6,634.6,51.7c181.6,50.8,402.2,114.2,702,70.3c299.7-43,555.5-173.8,678.6-406.2
	c38.1-103.5,193.3,23.4,193.3,23.4s-113.3-46.9-110.3-25.4c2.9,22.5,169.9,99.6,169.9,99.6s-151.3-46.9-141.6-11.7
	c8.8,35.1,189.4,177.7,189.4,177.7S2120.6,590.7,2104,612.2c-16.6,21.5,86.9,106.4,86.9,106.4s-171.8-106.4-232.4-75.2
	c-43.9,22.5,178.7,167.9,178.7,167.9s-144.5-110.3-178.7-81c-34.2,29.3,163,265.6,163,265.6s-223.6-242.1-246-230.4
	c-22.5,11.7,61.5,127.9,61.5,127.9s-111.3-120.1-141.6-99.6c-30.3,21.5,157.2,334.9,157.2,334.9s-204.1-322.2-288-268.5
	c132.8,290.9,83,332,83,332s-16.6-295.8-181.6-288c-83,3.9,39.1,220.7,39.1,220.7s-111.3-197.2-186.5-193.3
	c137.7,261.7,88.8,367.1,88.8,367.1s22.5-223.6-164-347.6c71.3,63.5-44.9,347.6-44.9,347.6s101.5-418.8-75.2-338.8
	c-28.3,12.7-2,208.9-2,208.9s-35.1-224.6-88.8-212.8c-31.2,6.8-197.2,311.4-197.2,311.4s135.7-329,94.7-315.4
	c-30.3,9.8-86.9,145.5-86.9,145.5s27.3-133.8,0-141.6s-181.6,141.6-181.6,141.6s114.2-133.8,94.7-162.1
	c-30.3-42-64.4-43.9-106.4-27.3c-60.5,23.4-141.6,133.8-141.6,133.8s81-112.3,67.4-153.3c-22.5-67.4-255.8,129.9-255.8,129.9
	s137.7-129.9,106.4-158.2c-31.2-27.3-203.1-19.5-255.8-19.5C111.3,841.6,56.6,804.5,8.8,766.4"/>
</svg>
