<?xml version="1.0" encoding="utf-8"?>
<!-- Generator: Adobe Illustrator 21.0.0, SVG Export Plug-In . SVG Version: 6.00 Build 0)  -->
<svg version="1.1" id="Layer_1" xmlns="http://www.w3.org/2000/svg" xmlns:xlink="http://www.w3.org/1999/xlink" x="0px" y="0px"
	 viewBox="0 0 2032 2500" style="enable-background:new 0 0 2032 2500;" xml:space="preserve">
<style type="text/css">
	.st0{fill:#666666;}
	.st1{fill:#FFFFFF;}
</style>
<g>
	<path class="st0" d="M535.8,2491c-4.3,0-8.9-1.1-12.2-5.4l-138-181.4v185.1h-31.5v-227.9c0-9.1,7.5-16.3,16.1-16.3
		c5,0,9.3,1.4,12.5,5.8l137.6,181.1v-184.3h31.5V2475C551.9,2484.4,544.4,2491,535.8,2491 M796.1,2493.2c-31.4,0-64.3-6.5-95.1-18.1
		l7.5-26.1c28.2,9.1,59,15.6,87.6,15.6c39.7,0,60.4-14.2,60.4-34.1c0-18.1-16.1-27.2-71.5-53.3c-55.4-26.1-77.2-42.8-77.2-75.5
		c0-41,31.4-57.7,90.8-57.7c24.7,0,62.6,5.1,84.4,11.6l-5,26.8c-24-5.8-54-9.8-78.7-9.8c-41.8,0-59,8-59,27.9
		c0,19.6,12.5,27.9,71.1,55.2c61.8,28.7,77.6,43.2,77.6,72.9C889,2471.8,848.3,2493.2,796.1,2493.2 M1038.1,2247.5h32.5v241.7h-32.5
		V2247.5z M1347.3,2379.6h-80.8v82h80.8c27.5,0,44.3-17.4,44.3-41.7C1391.6,2397,1374.1,2379.6,1347.3,2379.6 M1331.5,2275.1h-65.1
		v77.3h65.1c26.1,0,45-16.7,45-39.9C1376.6,2289.6,1360.1,2275.1,1331.5,2275.1 M1347.6,2489.2h-97.2c-9,0.1-16.3-7-16.5-16
		c0-0.1,0-0.2,0-0.3v-209c0-8.7,7.2-16.3,16.5-16.3h80.4c49.3,0,78.6,24.3,78.6,62.4c0,20.7-12.2,39.9-30.7,51.2
		c27.5,8.3,46.1,31.2,46.1,58.8C1424.8,2458.3,1393,2489.2,1347.6,2489.2 M1581,2489.2c-8.9,0-16.1-7.6-16.1-16.3v-225.3h32.5v212.3
		h129.4v29.4L1581,2489.2L1581,2489.2z M1948.6,2493.2c-66.5,0-106.5-24.7-106.5-74.4c0-23.6,13.2-46.1,39-56.6
		c-20.7-13.1-31.5-31.6-31.5-51.9c0-45,34.7-66.4,99.7-66.4c21.8,0,52.5,2.5,78.3,8.3l-3.6,26.8c-27.2-4.4-52.5-6.9-77.2-6.9
		c-42.2,0-64.7,11.6-64.7,39.6c0,22.1,20.7,39.6,48.3,39.6h55.8c7.9,0,13.9,6.2,13.9,13.8c0,8-6.1,14.2-13.9,14.2h-60
		c-31.5,0-51.5,15.6-51.5,39.6c0,35.2,32.5,45.7,73.3,45.7c22.2,0,52.2-2.9,76.5-8.7l4.7,26.5
		C2005.8,2488.8,1975.4,2493.2,1948.6,2493.2 M112.2,2292.8l57,142.7l-86-68.8L112.2,2292.8z M213.4,2468.4l-87.6-214.1
		c-2.5-6.2-7.5-9.4-13.6-9.4c-6.2-0.1-11.8,3.7-13.9,9.4L2.1,2489.2H35l38.1-96.8l113.6,93.2c4.6,3.8,7.9,5.4,12.2,5.4
		c8.6,0,16.1-6.5,16.1-16C214.9,2473.5,214.4,2471.1,213.4,2468.4L213.4,2468.4z"/>
</g>
<path class="st0" d="M2030.8,1014.8c0,559.2-453.3,1012.4-1012.4,1012.4C459.2,2027.2,5.9,1574,5.9,1014.8
	C5.9,455.7,459.2,2.4,1018.3,2.4C1577.5,2.4,2030.8,455.7,2030.8,1014.8"/>
<path class="st1" d="M1035.4,620.9l262,646.6L901.7,955.8L1035.4,620.9L1035.4,620.9z M1500.8,1416.5l-403-969.9
	c-11.5-28-34.5-42.8-62.4-42.8c-28,0-52.7,14.8-64.2,42.8L528.9,1510.4h151.3l175.1-438.6l522.5,422.1c21,17,36.2,24.7,55.9,24.7
	c39.5,0,74-29.6,74-72.3C1507.7,1439.4,1505.3,1428.3,1500.8,1416.5L1500.8,1416.5z"/>
</svg>
